<svg xmlns="http://www.w3.org/2000/svg" viewBox="0 0 240 240" role="img" aria-labelledby="title desc">
  <title id="title">Medicine Bazar logo</title>
  <desc id="desc">A green medical cross, capsule, and marketplace basket mark.</desc>
  <defs>
    <linearGradient id="g" x1="26" x2="214" y1="30" y2="210" gradientUnits="userSpaceOnUse">
      <stop stop-color="#0F9D76"/>
      <stop offset="0.58" stop-color="#14B8A6"/>
      <stop offset="1" stop-color="#2563EB"/>
    </linearGradient>
    <filter id="s" x="-20%" y="-20%" width="140%" height="140%">
      <feDropShadow dx="0" dy="16" stdDeviation="18" flood-color="#075E54" flood-opacity="0.22"/>
    </filter>
  </defs>
  <rect width="240" height="240" rx="54" fill="#F8FAFC"/>
  <path filter="url(#s)" fill="url(#g)" d="M120 24c53 0 96 43 96 96s-43 96-96 96-96-43-96-96 43-96 96-96Z"/>
  <path fill="#fff" d="M104 62h32v34h34v32h-34v34h-32v-34H70V96h34V62Z"/>
  <path fill="#075E54" fill-opacity=".16" d="M63 151h114l-12 37H75l-12-37Z"/>
  <path fill="#fff" d="M78 142h84a18 18 0 0 1 17 23l-6 22a18 18 0 0 1-17 13H84a18 18 0 0 1-17-13l-6-22a18 18 0 0 1 17-23Zm7 22 5 16h60l5-16H85Z"/>
  <path fill="#075E54" fill-opacity=".18" d="M89 118a18 18 0 0 1 25-25l37 37a18 18 0 0 1-25 25l-37-37Z"/>
  <path fill="#fff" d="M85 106a18 18 0 0 1 31-13l13 13-25 25-13-13a18 18 0 0 1-6-12Zm32 38 25-25 11 11a18 18 0 0 1-25 25l-11-11Z"/>
</svg>
